/* XPM */
static char * menu_active_xpm[] = {
"15 15 12 1",
" 	c None",
".	c #000000",
"+	c #000100",
"@	c #000200",
"#	c #000900",
"$	c #001100",
"%	c #001600",
"&	c #002000",
"*	c #004F00",
"=	c #005B00",
"-	c #009A00",
";	c #00FF00",
"...............",
"...............",
"...............",
".....+@@@+.....",
"....@#$%$#@....",
"...+#&*=*&#+...",
"...@$*-;-*$@...",
"...@%=;;;=%@...",
"...@$*-;-*$@...",
"...+#&*=*&#+...",
"....@#$%$#@....",
".....+@@@+.....",
"...............",
"...............",
"..............."};
