/* XPM */
static char * stock_commandline_browser_xpm[] = {
"24 24 2 1",
" 	c None",
".	c #00FF00",
"                        ",
"                        ",
"                        ",
"                        ",
"                        ",
"                        ",
"          ...           ",
"        .......         ",
"       .........        ",
"       .........        ",
"      ...........       ",
"      ...........       ",
"      ...........       ",
"       .........        ",
"       .........        ",
"        .......         ",
"          ...           ",
"                        ",
"                        ",
"                        ",
"                        ",
"                        ",
"                        ",
"                        "};
